<svg width="23" height="22" viewBox="0 0 23 22" fill="none" xmlns="http://www.w3.org/2000/svg">
<path d="M5 4.28571C4.81056 4.28571 4.62888 4.36097 4.49492 4.49492C4.36097 4.62888 4.28571 4.81056 4.28571 5C4.28571 5.18944 4.36097 5.37112 4.49492 5.50508C4.62888 5.63903 4.81056 5.71429 5 5.71429H15C15.1894 5.71429 15.3711 5.63903 15.5051 5.50508C15.639 5.37112 15.7143 5.18944 15.7143 5C15.7143 4.81056 15.639 4.62888 15.5051 4.49492C15.3711 4.36097 15.1894 4.28571 15 4.28571H5ZM4.28571 0C3.14907 0 2.05898 0.451529 1.25526 1.25526C0.451529 2.05898 0 3.14907 0 4.28571V15.7143C0 16.8509 0.451529 17.941 1.25526 18.7447C2.05898 19.5485 3.14907 20 4.28571 20H15.7143C16.8509 20 17.941 19.5485 18.7447 18.7447C19.5485 17.941 20 16.8509 20 15.7143V4.28571C20 3.14907 19.5485 2.05898 18.7447 1.25526C17.941 0.451529 16.8509 0 15.7143 0H4.28571ZM1.42857 4.28571C1.42857 3.52795 1.72959 2.80123 2.26541 2.26541C2.80123 1.72959 3.52795 1.42857 4.28571 1.42857H15.7143C16.472 1.42857 17.1988 1.72959 17.7346 2.26541C18.2704 2.80123 18.5714 3.52795 18.5714 4.28571V15.7143C18.5714 16.472 18.2704 17.1988 17.7346 17.7346C17.1988 18.2704 16.472 18.5714 15.7143 18.5714H4.28571C3.52795 18.5714 2.80123 18.2704 2.26541 17.7346C1.72959 17.1988 1.42857 16.472 1.42857 15.7143V4.28571Z" fill="#0977FF"/>
<path d="M16 22C17.8565 22 19.637 21.2625 20.9497 19.9497C22.2625 18.637 23 16.8565 23 15C23 13.1435 22.2625 11.363 20.9497 10.0503C19.637 8.7375 17.8565 8 16 8C14.1435 8 12.363 8.7375 11.0503 10.0503C9.7375 11.363 9 13.1435 9 15C9 16.8565 9.7375 18.637 11.0503 19.9497C12.363 21.2625 14.1435 22 16 22V22ZM16.8138 13.7645L15.9387 17.8814C15.8775 18.1789 15.9641 18.3478 16.2048 18.3478C16.3745 18.3478 16.6309 18.2865 16.805 18.1325L16.728 18.4965C16.4769 18.7993 15.923 19.0197 15.4461 19.0197C14.831 19.0197 14.5694 18.6505 14.7391 17.8656L15.3849 14.8311C15.4409 14.5748 15.3901 14.482 15.1338 14.4199L14.7391 14.349L14.8109 14.0156L16.8146 13.7645H16.8138ZM16 12.8125C15.7679 12.8125 15.5454 12.7203 15.3813 12.5562C15.2172 12.3921 15.125 12.1696 15.125 11.9375C15.125 11.7054 15.2172 11.4829 15.3813 11.3188C15.5454 11.1547 15.7679 11.0625 16 11.0625C16.2321 11.0625 16.4546 11.1547 16.6187 11.3188C16.7828 11.4829 16.875 11.7054 16.875 11.9375C16.875 12.1696 16.7828 12.3921 16.6187 12.5562C16.4546 12.7203 16.2321 12.8125 16 12.8125V12.8125Z" fill="#0977FF"/>
</svg>
